<?xml version="1.0" standalone="no"?>
<!DOCTYPE svg PUBLIC "-//W3C//DTD SVG 20010904//EN"
 "http://www.w3.org/TR/2001/REC-SVG-20010904/DTD/svg10.dtd">
<svg version="1.0" xmlns="http://www.w3.org/2000/svg"
 width="620.000000pt" height="620.000000pt" viewBox="0 0 620.000000 620.000000"
 preserveAspectRatio="xMidYMid meet">
<metadata>
Created by potrace 1.14, written by Peter Selinger 2001-2017
</metadata>
<g transform="translate(0.000000,620.000000) scale(0.100000,-0.100000)"
fill="#000000" stroke="none">
<path d="M4475 4373 c-285 -59 -506 -174 -695 -363 -193 -193 -307 -411 -365
-696 -24 -117 -22 -359 5 -477 5 -23 11 -53 14 -67 2 -14 16 -56 29 -95 94
-270 265 -494 502 -657 162 -111 438 -208 591 -208 24 0 44 -4 44 -10 0 -5 5
-10 11 -10 5 0 7 6 3 13 -6 9 -4 9 7 -1 16 -14 135 -17 144 -2 3 6 12 10 18
10 7 0 6 -4 -3 -10 -12 -7 -10 -9 7 -7 12 0 19 5 17 9 -3 4 10 8 28 9 18 0 40
2 48 4 8 2 31 6 50 9 19 4 42 9 50 11 8 2 26 6 40 9 43 7 172 57 245 94 167
83 353 237 457 377 145 196 231 412 254 645 9 87 8 83 18 99 6 9 5 12 -2 7 -7
-4 -11 16 -11 66 -1 70 -3 96 -17 183 -9 59 -32 143 -63 230 -32 90 -138 274
-200 350 -58 70 -213 214 -282 261 -140 97 -317 174 -479 208 -61 13 -413 20
-465 9z m440 -338 c339 -90 598 -355 688 -705 22 -83 25 -114 23 -250 -2 -171
-15 -239 -71 -371 -28 -68 -108 -203 -138 -234 -106 -112 -142 -144 -211 -190
-172 -114 -322 -156 -536 -152 -157 4 -236 21 -359 78 -117 54 -193 108 -287
203 -210 212 -303 493 -269 811 22 198 128 417 275 564 230 230 577 326 885
246z"/>
<path d="M910 3095 l0 -1265 220 0 220 0 0 1265 0 1265 -220 0 -220 0 0 -1265z"/>
<path d="M1564 3095 l0 -1266 445 2 c405 1 455 3 541 21 409 86 619 335 604
717 -9 231 -133 407 -377 534 -37 19 -69 38 -70 40 -1 3 26 24 59 46 168 112
266 304 268 521 1 249 -84 417 -267 525 -64 39 -198 89 -267 100 -25 4 -54 10
-65 13 -11 3 -211 7 -445 9 l-426 5 0 -1267z m835 920 c116 -30 203 -90 242
-168 22 -42 45 -152 43 -207 -3 -105 -48 -222 -112 -286 -38 -38 -109 -75
-172 -89 -39 -9 -489 -14 -491 -5 -1 3 -2 177 -3 387 -2 333 0 383 13 385 8 2
105 3 216 2 153 -1 215 -6 264 -19z m11 -1099 c132 -22 228 -65 300 -132 60
-56 91 -125 97 -220 14 -203 -111 -352 -337 -400 -54 -12 -139 -17 -305 -18
-126 -1 -237 -1 -245 1 -14 4 -16 51 -16 391 l-1 388 231 -2 c127 0 251 -4
276 -8z"/>
<path d="M461 3700 c-8 -4 -20 -6 -28 -3 -9 4 -11 0 -6 -13 3 -10 2 -15 -3
-12 -5 4 -10 -6 -10 -20 -3 -73 -8 -118 -13 -127 -3 -5 -6 -32 -7 -60 -1 -27
-3 -50 -4 -50 -3 0 -8 -46 -11 -87 -1 -21 -5 -38 -8 -38 -3 0 -6 -19 -5 -42 0
-24 -4 -49 -9 -55 -6 -9 -6 -13 2 -13 7 0 9 -5 6 -10 -10 -16 -24 -109 -27
-177 -1 -24 -5 -43 -8 -43 -3 0 -6 -17 -7 -38 0 -20 -4 -62 -8 -92 -4 -30 -9
-71 -10 -90 -2 -19 -4 -35 -5 -35 -1 0 -3 -16 -6 -35 -2 -19 -6 -51 -9 -70 -3
-19 -7 -53 -9 -75 -2 -22 -7 -67 -11 -100 -5 -33 -9 -71 -10 -85 -2 -14 -4
-25 -5 -25 -2 0 -10 -87 -13 -147 -1 -27 -5 -48 -8 -48 -3 0 -7 -12 -8 -27 0
-16 -3 -46 -6 -68 -2 -22 -7 -65 -10 -95 -3 -30 -8 -62 -10 -72 -6 -15 10 -17
204 -17 247 0 217 -22 236 169 2 25 7 58 10 74 3 15 7 50 8 77 1 27 4 49 7 49
3 0 6 15 7 33 0 30 10 112 13 112 1 0 8 70 14 142 1 23 9 50 17 60 11 13 11
15 0 9 -10 -7 -11 -3 -6 15 4 13 9 40 11 59 6 60 24 215 30 244 3 21 10 76 20
171 8 72 12 100 14 100 1 0 3 24 6 54 2 30 10 58 17 63 9 6 9 8 0 8 -7 0 -10
9 -7 23 5 22 11 67 20 147 8 76 9 85 15 95 2 6 4 31 4 57 0 27 3 48 6 48 5 0
5 20 0 64 -1 5 -7 3 -15 -3 -10 -8 -16 -9 -21 -1 -4 6 -12 7 -24 0 -12 -6 -22
-5 -29 2 -9 9 -12 9 -12 -1 0 -10 -3 -11 -13 -3 -8 7 -18 7 -27 2 -9 -5 -19
-5 -27 2 -9 7 -13 7 -13 -2 0 -9 -4 -9 -13 -2 -8 7 -18 7 -27 2 -9 -5 -19 -5
-27 2 -9 7 -13 7 -13 -2 0 -9 -4 -9 -13 -2 -8 7 -18 7 -27 2 -9 -5 -19 -5 -27
2 -9 7 -13 7 -13 -2 0 -9 -4 -9 -13 -2 -7 6 -18 7 -26 2z"/>
</g>
</svg>
